<svg data-v-fde0c5aa="" xmlns="http://www.w3.org/2000/svg" viewBox="0 0 300 300" class="font"><!----><defs data-v-fde0c5aa=""><!----></defs><rect data-v-fde0c5aa="" fill="transparent" x="0" y="0" width="300px" height="300px" class="logo-background-square"></rect><defs data-v-fde0c5aa=""><linearGradient data-v-fde0c5aa="" gradientTransform="rotate(25)" id="c1d07b30-b840-4e6a-ae5d-d01e60ef19a7" x1="0%" y1="0%" x2="100%" y2="0%"><stop data-v-fde0c5aa="" offset="0%" stop-color="#B4373D" stop-opacity="1"></stop><stop data-v-fde0c5aa="" offset="100%" stop-color="#B23ACB" stop-opacity="1"></stop></linearGradient></defs><g data-v-fde0c5aa="" id="4878ff84-4428-49cd-8f9f-fa3b6fa203aa" fill="url(#c1d07b30-b840-4e6a-ae5d-d01e60ef19a7)" transform="matrix(4.2056966970819065,0,0,4.2056966970819065,48.28522261357729,113.49455238856851)"><path d="M-1.01 13.22L-1.97 14.70C-1.82 14.91-1.55 15.12-1.16 15.34C-0.77 15.57-0.35 15.68 0.10 15.68C0.88 15.68 1.53 15.48 2.04 15.08C2.55 14.69 2.80 14.09 2.80 13.30L2.80 2.80L0.91 2.80L0.91 12.88C0.91 13.30 0.83 13.58 0.67 13.72C0.50 13.86 0.29 13.93 0.03 13.93C-0.37 13.93-0.72 13.69-1.01 13.22ZM3.99 9.38C3.99 10.44 4.36 11.28 5.09 11.89C5.82 12.50 6.71 12.81 7.74 12.81C8.78 12.81 9.66 12.50 10.39 11.89C11.13 11.28 11.49 10.44 11.49 9.38C11.49 8.32 11.13 7.48 10.39 6.87C9.66 6.26 8.78 5.95 7.74 5.95C6.71 5.95 5.82 6.26 5.09 6.87C4.36 7.48 3.99 8.32 3.99 9.38ZM5.89 9.38C5.89 8.84 6.06 8.40 6.40 8.06C6.73 7.73 7.18 7.56 7.74 7.56C8.30 7.56 8.75 7.73 9.09 8.06C9.42 8.40 9.59 8.84 9.59 9.38C9.59 9.92 9.42 10.36 9.09 10.70C8.75 11.03 8.30 11.20 7.74 11.20C7.18 11.20 6.73 11.03 6.40 10.70C6.06 10.36 5.89 9.92 5.89 9.38ZM20.03 9.38C20.03 8.26 19.73 7.42 19.11 6.86C18.49 6.30 17.71 6.02 16.77 6.02C15.74 6.02 14.96 6.46 14.43 7.35L14.43 1.68L12.54 1.68L12.54 12.60L14.43 12.60L14.43 11.41C14.96 12.30 15.74 12.74 16.77 12.74C17.71 12.74 18.49 12.46 19.11 11.90C19.73 11.34 20.03 10.50 20.03 9.38ZM18.13 9.38C18.13 9.93 17.96 10.35 17.62 10.63C17.28 10.92 16.83 11.06 16.28 11.06C15.75 11.06 15.31 10.92 14.96 10.65C14.61 10.37 14.43 9.95 14.43 9.38C14.43 8.81 14.61 8.39 14.96 8.11C15.31 7.84 15.75 7.70 16.28 7.70C16.81 7.70 17.26 7.86 17.61 8.17C17.96 8.48 18.13 8.89 18.13 9.38ZM21.36 2.80L21.36 12.60L23.32 12.60L23.32 8.33L27.94 8.33L27.94 12.60L29.90 12.60L29.90 2.80L27.94 2.80L27.94 6.58L23.32 6.58L23.32 2.80ZM35.99 9.94C35.99 10.49 35.87 10.85 35.62 11.03C35.38 11.20 35.02 11.28 34.57 11.28C34.21 11.28 33.95 11.18 33.79 10.98C33.63 10.77 33.54 10.43 33.54 9.94L33.54 6.16L31.65 6.16L31.65 10.50C31.65 12.00 32.34 12.75 33.73 12.75C34.81 12.75 35.56 12.35 35.99 11.55L35.99 12.60L37.88 12.60L37.88 6.16L35.99 6.16ZM41.45 8.82C41.45 8.38 41.59 8.05 41.86 7.82C42.13 7.59 42.47 7.48 42.88 7.48C43.24 7.48 43.50 7.57 43.66 7.76C43.82 7.95 43.90 8.26 43.90 8.68L43.90 12.60L45.79 12.60L45.79 8.26C45.79 7.57 45.59 7.02 45.19 6.61C44.79 6.21 44.25 6.01 43.58 6.01C42.62 6.01 41.91 6.41 41.45 7.22L41.45 6.16L39.56 6.16L39.56 12.60L41.45 12.60ZM47.40 3.92L47.40 6.16L46.35 6.16L46.35 7.77L47.40 7.77L47.40 12.60L49.29 12.60L49.29 7.77L50.34 7.77L50.34 6.16L49.29 6.16L49.29 3.92Z"></path></g><!----><!----></svg>